<?xml version="1.0" encoding="utf-8"?>
<svg version="1.1" width="150px" height="150px" style="shape-rendering:geometricPrecision; text-rendering:geometricPrecision; image-rendering:optimizeQuality; fill-rule:evenodd; clip-rule:evenodd" xmlns="http://www.w3.org/2000/svg">
  <g style="transform-origin: 74.4296px 30px;" transform="matrix(-1, 0, 0, -1, 0.141037, 76.999817)">
    <path style="opacity:1" fill="#f3c14e" d="M 77.5,25.5 C 76.5119,30.6405 76.1786,35.9738 76.5,41.5C 74.7085,41.366 73.0418,41.6993 71.5,42.5C 71.5,37.1667 71.5,31.8333 71.5,26.5C 70.924,22.8781 71.924,19.8781 74.5,17.5C 76.6632,19.6473 77.6632,22.314 77.5,25.5 Z"/>
  </g>
  <g style="transform-origin: 74.4683px 51px;" transform="matrix(-1, 0, 0, -1, 0.063646, 34.999744)">
    <path style="opacity:1" fill="#6c2e5c" d="M 77.5,25.5 C 84.3431,28.1107 90.0098,32.444 94.5,38.5C 97.536,45.8826 96.7027,52.8826 92,59.5C 86.2981,65.3696 80.4647,71.0362 74.5,76.5C 67.6862,71.2481 61.5195,65.2481 56,58.5C 52.107,51.7041 51.607,44.7041 54.5,37.5C 57.9743,34.1983 61.641,31.0316 65.5,28C 67.3453,26.872 69.3453,26.372 71.5,26.5C 71.5,31.8333 71.5,37.1667 71.5,42.5C 67.749,49.258 69.749,52.0913 77.5,51C 80.3251,47.4764 79.9918,44.3097 76.5,41.5C 76.1786,35.9738 76.5119,30.6405 77.5,25.5 Z"/>
  </g>
  <g style="transform-origin: 45.5px 71px;" transform="matrix(-1, 0, 0, -1, 58.000244, -5.000285)">
    <path style="opacity:1" fill="#ed4666" d="M 54.5,37.5 C 51.607,44.7041 52.107,51.7041 56,58.5C 61.5195,65.2481 67.6862,71.2481 74.5,76.5C 74.5,77.1667 74.5,77.8333 74.5,78.5C 73.448,78.3505 72.448,78.5172 71.5,79C 62.9253,88.0783 53.9253,96.5783 44.5,104.5C 34.434,96.8657 25.2673,88.1991 17,78.5C 16.3333,77.5 16.3333,76.5 17,75.5C 29.3675,62.6329 41.8675,49.9663 54.5,37.5 Z"/>
  </g>
  <g style="transform-origin: 103.5px 71.5px;" transform="matrix(-1, 0, 0, -1, -57.999756, -6.000257)">
    <path style="opacity:1" fill="#4dbeb1" d="M 94.5,38.5 C 107.844,50.8437 120.51,63.8437 132.5,77.5C 124.401,87.8637 115.067,96.8637 104.5,104.5C 95.0747,96.5783 86.0747,88.0783 77.5,79C 76.552,78.5172 75.552,78.3505 74.5,78.5C 74.5,77.8333 74.5,77.1667 74.5,76.5C 80.4647,71.0362 86.2981,65.3696 92,59.5C 96.7027,52.8826 97.536,45.8826 94.5,38.5 Z"/>
  </g>
  <g style="transform-origin: 74.5302px 46.3494px;" transform="matrix(-1, 0, 0, -1, -0.060118, 44.300869)">
    <path style="opacity:0.998" fill="#fbf8f7" d="M 76.5,41.5 C 79.9918,44.3097 80.3251,47.4764 77.5,51C 69.749,52.0913 67.749,49.258 71.5,42.5C 73.0418,41.6993 74.7085,41.366 76.5,41.5 Z"/>
  </g>
</svg>